<?xml version="1.0" encoding="UTF-8"?>
<svg version="1.1" xmlns="http://www.w3.org/2000/svg" width="1660" height="616">
<path d="M0 0 C547.8 0 1095.6 0 1660 0 C1660 203.28 1660 406.56 1660 616 C1112.2 616 564.4 616 0 616 C0 412.72 0 209.44 0 0 Z " fill="#000000" transform="translate(0,0)"/>
<path d="M0 0 C6.93 0 13.86 0 21 0 C21 5.61 21 11.22 21 17 C59.28 17 97.56 17 137 17 C137 11.39 137 5.78 137 0 C143.93 0 150.86 0 158 0 C158 5.94 158 11.88 158 18 C151.73 18 145.46 18 139 18 C139 23.28 139 28.56 139 34 C99.73 34 60.46 34 20 34 C20 28.72 20 23.44 20 18 C14.06 18 8.12 18 2 18 C2 23.28 2 28.56 2 34 C-4.93 34 -11.86 34 -19 34 C-19 28.39 -19 22.78 -19 17 C-12.73 17 -6.46 17 0 17 C0 11.39 0 5.78 0 0 Z " fill="#F9F9F9" transform="translate(651,179)"/>
<path d="M0 0 C19.8 0 39.6 0 60 0 C60 5.61 60 11.22 60 17 C85.74 17 111.48 17 138 17 C138 22.61 138 28.22 138 34 C105.33 34 72.66 34 39 34 C39 28.72 39 23.44 39 18 C26.46 18 13.92 18 1 18 C1 23.28 1 28.56 1 34 C-5.93 34 -12.86 34 -20 34 C-20 28.39 -20 22.78 -20 17 C-13.4 17 -6.8 17 0 17 C0 11.39 0 5.78 0 0 Z " fill="#FAFAFA" transform="translate(847,27)"/>
<path d="M0 0 C13.53 0 27.06 0 41 0 C41 5.61 41 11.22 41 17 C46.94 17 52.88 17 59 17 C59 11.39 59 5.78 59 0 C78.8 0 98.6 0 119 0 C119 5.61 119 11.22 119 17 C125.6 17 132.2 17 139 17 C139 22.61 139 28.22 139 34 C132.07 34 125.14 34 118 34 C118 28.72 118 23.44 118 18 C98.86 18 79.72 18 60 18 C60 23.28 60 28.56 60 34 C53.07 34 46.14 34 39 34 C39 28.72 39 23.44 39 18 C26.79 18 14.58 18 2 18 C2 23.28 2 28.56 2 34 C-4.93 34 -11.86 34 -19 34 C-19 28.39 -19 22.78 -19 17 C-12.73 17 -6.46 17 0 17 C0 11.39 0 5.78 0 0 Z " fill="#F4F4F4" transform="translate(64,331)"/>
<path d="M0 0 C32.67 0 65.34 0 99 0 C99 5.94 99 11.88 99 18 C92.73 18 86.46 18 80 18 C80 23.28 80 28.56 80 34 C73.07 34 66.14 34 59 34 C59 28.72 59 23.44 59 18 C46.46 18 33.92 18 21 18 C21 23.28 21 28.56 21 34 C14.07 34 7.14 34 0 34 C0 22.78 0 11.56 0 0 Z " fill="#F7F7F7" transform="translate(84,407)"/>
<path d="M0 0 C10.23 0 20.46 0 31 0 C31 5.61 31 11.22 31 17 C56.41 17 81.82 17 108 17 C108 11.39 108 5.78 108 0 C114.93 0 121.86 0 129 0 C129 5.94 129 11.88 129 18 C122.4 18 115.8 18 109 18 C109 23.28 109 28.56 109 34 C82.93 34 56.86 34 30 34 C30 28.72 30 23.44 30 18 C23.73 18 17.46 18 11 18 C11 23.28 11 28.56 11 34 C7.37 34 3.74 34 0 34 C0 22.78 0 11.56 0 0 Z " fill="#FBFBFB" transform="translate(1287,483)"/>
<path d="M0 0 C6.93 0 13.86 0 21 0 C21 5.61 21 11.22 21 17 C46.41 17 71.82 17 98 17 C98 11.39 98 5.78 98 0 C104.93 0 111.86 0 119 0 C119 5.94 119 11.88 119 18 C112.4 18 105.8 18 99 18 C99 23.28 99 28.56 99 34 C72.93 34 46.86 34 20 34 C20 28.72 20 23.44 20 18 C13.73 18 7.46 18 1 18 C1 23.28 1 28.56 1 34 C-5.93 34 -12.86 34 -20 34 C-20 28.39 -20 22.78 -20 17 C-13.4 17 -6.8 17 0 17 C0 11.39 0 5.78 0 0 Z " fill="#FCFCFC" transform="translate(436,483)"/>
<path d="M0 0 C19.8 0 39.6 0 60 0 C60 5.61 60 11.22 60 17 C72.87 17 85.74 17 99 17 C99 22.61 99 28.22 99 34 C79.2 34 59.4 34 39 34 C39 28.72 39 23.44 39 18 C26.46 18 13.92 18 1 18 C1 23.28 1 28.56 1 34 C-5.93 34 -12.86 34 -20 34 C-20 28.39 -20 22.78 -20 17 C-13.4 17 -6.8 17 0 17 C0 11.39 0 5.78 0 0 Z " fill="#F9F9F9" transform="translate(769,331)"/>
<path d="M0 0 C19.8 0 39.6 0 60 0 C60 5.61 60 11.22 60 17 C72.87 17 85.74 17 99 17 C99 22.61 99 28.22 99 34 C79.2 34 59.4 34 39 34 C39 28.72 39 23.44 39 18 C26.46 18 13.92 18 1 18 C1 23.28 1 28.56 1 34 C-5.93 34 -12.86 34 -20 34 C-20 28.39 -20 22.78 -20 17 C-13.4 17 -6.8 17 0 17 C0 11.39 0 5.78 0 0 Z " fill="#FBFBFB" transform="translate(436,331)"/>
<path d="M0 0 C6.93 0 13.86 0 21 0 C21 5.61 21 11.22 21 17 C39.81 17 58.62 17 78 17 C78 11.39 78 5.78 78 0 C84.93 0 91.86 0 99 0 C99 11.22 99 22.44 99 34 C66.33 34 33.66 34 0 34 C0 22.78 0 11.56 0 0 Z " fill="#FBFBFB" transform="translate(1512,407)"/>
<path d="M0 0 C6.93 0 13.86 0 21 0 C21 5.61 21 11.22 21 17 C39.81 17 58.62 17 78 17 C78 11.39 78 5.78 78 0 C84.93 0 91.86 0 99 0 C99 11.22 99 22.44 99 34 C66.33 34 33.66 34 0 34 C0 22.78 0 11.56 0 0 Z " fill="#FCFCFC" transform="translate(945,407)"/>
<path d="M0 0 C6.93 0 13.86 0 21 0 C21 5.61 21 11.22 21 17 C39.81 17 58.62 17 78 17 C78 11.39 78 5.78 78 0 C84.93 0 91.86 0 99 0 C99 11.22 99 22.44 99 34 C66.33 34 33.66 34 0 34 C0 22.78 0 11.56 0 0 Z " fill="#FBFBFB" transform="translate(612,407)"/>
<path d="M0 0 C6.93 0 13.86 0 21 0 C21 5.61 21 11.22 21 17 C39.81 17 58.62 17 78 17 C78 11.39 78 5.78 78 0 C84.93 0 91.86 0 99 0 C99 11.22 99 22.44 99 34 C66.33 34 33.66 34 0 34 C0 22.78 0 11.56 0 0 Z " fill="#FBFBFB" transform="translate(475,103)"/>
<path d="M0 0 C6.93 0 13.86 0 21 0 C21 5.61 21 11.22 21 17 C53.34 17 85.68 17 119 17 C119 22.61 119 28.22 119 34 C79.73 34 40.46 34 0 34 C0 22.78 0 11.56 0 0 Z " fill="#FCFCFC" transform="translate(847,103)"/>
<path d="M0 0 C26.4 0 52.8 0 80 0 C80 5.61 80 11.22 80 17 C86.27 17 92.54 17 99 17 C99 22.61 99 28.22 99 34 C92.07 34 85.14 34 78 34 C78 28.72 78 23.44 78 18 C52.59 18 27.18 18 1 18 C1 23.28 1 28.56 1 34 C-5.93 34 -12.86 34 -20 34 C-20 28.39 -20 22.78 -20 17 C-13.4 17 -6.8 17 0 17 C0 11.39 0 5.78 0 0 Z " fill="#F3F3F3" transform="translate(260,331)"/>
<path d="M0 0 C26.07 0 52.14 0 79 0 C79 5.61 79 11.22 79 17 C85.6 17 92.2 17 99 17 C99 22.61 99 28.22 99 34 C92.07 34 85.14 34 78 34 C78 28.72 78 23.44 78 18 C52.59 18 27.18 18 1 18 C1 23.28 1 28.56 1 34 C-5.93 34 -12.86 34 -20 34 C-20 28.39 -20 22.78 -20 17 C-13.4 17 -6.8 17 0 17 C0 11.39 0 5.78 0 0 Z " fill="#F4F4F4" transform="translate(1317,331)"/>
<path d="M0 0 C26.07 0 52.14 0 79 0 C79 5.61 79 11.22 79 17 C85.6 17 92.2 17 99 17 C99 22.61 99 28.22 99 34 C92.07 34 85.14 34 78 34 C78 28.72 78 23.44 78 18 C52.59 18 27.18 18 1 18 C1 23.28 1 28.56 1 34 C-5.93 34 -12.86 34 -20 34 C-20 28.39 -20 22.78 -20 17 C-13.4 17 -6.8 17 0 17 C0 11.39 0 5.78 0 0 Z " fill="#F6F6F6" transform="translate(632,27)"/>
<path d="M0 0 C6.93 0 13.86 0 21 0 C21 5.61 21 11.22 21 17 C39.81 17 58.62 17 78 17 C78 11.39 78 5.78 78 0 C84.93 0 91.86 0 99 0 C99 5.94 99 11.88 99 18 C92.4 18 85.8 18 79 18 C79 23.28 79 28.56 79 34 C59.2 34 39.4 34 19 34 C19 28.72 19 23.44 19 18 C13.06 18 7.12 18 1 18 C1 23.28 1 28.56 1 34 C-5.93 34 -12.86 34 -20 34 C-20 28.39 -20 22.78 -20 17 C-13.4 17 -6.8 17 0 17 C0 11.39 0 5.78 0 0 Z " fill="#FAFAFA" transform="translate(769,483)"/>
<path d="M0 0 C6.93 0 13.86 0 21 0 C21 5.61 21 11.22 21 17 C46.41 17 71.82 17 98 17 C98 11.39 98 5.78 98 0 C104.93 0 111.86 0 119 0 C119 5.94 119 11.88 119 18 C112.4 18 105.8 18 99 18 C99 23.28 99 28.56 99 34 C72.6 34 46.2 34 19 34 C19 28.72 19 23.44 19 18 C12.73 18 6.46 18 0 18 C0 12.06 0 6.12 0 0 Z " fill="#FBFBFB" transform="translate(1121,483)"/>
<path d="M0 0 C19.8 0 39.6 0 60 0 C60 5.61 60 11.22 60 17 C66.6 17 73.2 17 80 17 C80 22.61 80 28.22 80 34 C66.47 34 52.94 34 39 34 C39 28.72 39 23.44 39 18 C26.79 18 14.58 18 2 18 C2 23.28 2 28.56 2 34 C-4.93 34 -11.86 34 -19 34 C-19 28.39 -19 22.78 -19 17 C-12.73 17 -6.46 17 0 17 C0 11.39 0 5.78 0 0 Z " fill="#F6F6F6" transform="translate(612,331)"/>
<path d="M0 0 C19.8 0 39.6 0 60 0 C60 5.61 60 11.22 60 17 C66.6 17 73.2 17 80 17 C80 22.61 80 28.22 80 34 C66.47 34 52.94 34 39 34 C39 28.72 39 23.44 39 18 C26.79 18 14.58 18 2 18 C2 23.28 2 28.56 2 34 C-4.93 34 -11.86 34 -19 34 C-19 28.39 -19 22.78 -19 17 C-12.73 17 -6.46 17 0 17 C0 11.39 0 5.78 0 0 Z " fill="#F6F6F6" transform="translate(475,27)"/>
<path d="M0 0 C19.8 0 39.6 0 60 0 C60 5.61 60 11.22 60 17 C66.27 17 72.54 17 79 17 C79 22.61 79 28.22 79 34 C65.8 34 52.6 34 39 34 C39 28.72 39 23.44 39 18 C26.46 18 13.92 18 1 18 C1 23.28 1 28.56 1 34 C-5.93 34 -12.86 34 -20 34 C-20 28.39 -20 22.78 -20 17 C-13.4 17 -6.8 17 0 17 C0 11.39 0 5.78 0 0 Z " fill="#F8F8F8" transform="translate(945,331)"/>
<path d="M0 0 C6.93 0 13.86 0 21 0 C21 5.61 21 11.22 21 17 C46.74 17 72.48 17 99 17 C99 22.61 99 28.22 99 34 C72.6 34 46.2 34 19 34 C19 28.72 19 23.44 19 18 C13.06 18 7.12 18 1 18 C1 23.28 1 28.56 1 34 C-5.93 34 -12.86 34 -20 34 C-20 28.39 -20 22.78 -20 17 C-13.4 17 -6.8 17 0 17 C0 11.39 0 5.78 0 0 Z " fill="#FFFFFF" transform="translate(847,179)"/>
<path d="M0 0 C6.93 0 13.86 0 21 0 C21 5.61 21 11.22 21 17 C39.81 17 58.62 17 78 17 C78 11.39 78 5.78 78 0 C84.93 0 91.86 0 99 0 C99 5.94 99 11.88 99 18 C92.4 18 85.8 18 79 18 C79 23.28 79 28.56 79 34 C52.93 34 26.86 34 0 34 C0 22.78 0 11.56 0 0 Z " fill="#FAFAFA" transform="translate(769,407)"/>
<path d="M0 0 C13.53 0 27.06 0 41 0 C41 5.61 41 11.22 41 17 C47.27 17 53.54 17 60 17 C60 22.61 60 28.22 60 34 C53.07 34 46.14 34 39 34 C39 28.72 39 23.44 39 18 C26.79 18 14.58 18 2 18 C2 23.28 2 28.56 2 34 C-4.93 34 -11.86 34 -19 34 C-19 28.39 -19 22.78 -19 17 C-12.73 17 -6.46 17 0 17 C0 11.39 0 5.78 0 0 Z " fill="#ECECEC" transform="translate(1199,331)"/>
<path d="M0 0 C13.53 0 27.06 0 41 0 C41 5.61 41 11.22 41 17 C47.27 17 53.54 17 60 17 C60 22.61 60 28.22 60 34 C53.07 34 46.14 34 39 34 C39 28.72 39 23.44 39 18 C26.79 18 14.58 18 2 18 C2 23.28 2 28.56 2 34 C-4.93 34 -11.86 34 -19 34 C-19 28.39 -19 22.78 -19 17 C-12.73 17 -6.46 17 0 17 C0 11.39 0 5.78 0 0 Z " fill="#ECECEC" transform="translate(1101,331)"/>
<path d="M0 0 C26.4 0 52.8 0 80 0 C80 5.94 80 11.88 80 18 C53.6 18 27.2 18 0 18 C0 12.06 0 6.12 0 0 Z " fill="#F2F2F2" transform="translate(260,483)"/>
<path d="M0 0 C13.2 0 26.4 0 40 0 C40 5.61 40 11.22 40 17 C46.6 17 53.2 17 60 17 C60 22.61 60 28.22 60 34 C53.07 34 46.14 34 39 34 C39 28.72 39 23.44 39 18 C26.46 18 13.92 18 1 18 C1 23.28 1 28.56 1 34 C-5.93 34 -12.86 34 -20 34 C-20 28.39 -20 22.78 -20 17 C-13.4 17 -6.8 17 0 17 C0 11.39 0 5.78 0 0 Z " fill="#F7F7F7" transform="translate(1493,331)"/>
<path d="M0 0 C13.2 0 26.4 0 40 0 C40 5.61 40 11.22 40 17 C46.6 17 53.2 17 60 17 C60 22.61 60 28.22 60 34 C53.07 34 46.14 34 39 34 C39 28.72 39 23.44 39 18 C26.46 18 13.92 18 1 18 C1 23.28 1 28.56 1 34 C-5.93 34 -12.86 34 -20 34 C-20 28.39 -20 22.78 -20 17 C-13.4 17 -6.8 17 0 17 C0 11.39 0 5.78 0 0 Z " fill="#F7F7F7" transform="translate(1043,27)"/>
<path d="M0 0 C6.93 0 13.86 0 21 0 C21 5.61 21 11.22 21 17 C26.94 17 32.88 17 39 17 C39 11.39 39 5.78 39 0 C45.93 0 52.86 0 60 0 C60 5.94 60 11.88 60 18 C53.4 18 46.8 18 40 18 C40 23.28 40 28.56 40 34 C33.07 34 26.14 34 19 34 C19 28.72 19 23.44 19 18 C12.73 18 6.46 18 0 18 C0 12.06 0 6.12 0 0 Z " fill="#F7F7F7" transform="translate(1121,103)"/>
<path d="M0 0 C6.93 0 13.86 0 21 0 C21 5.61 21 11.22 21 17 C27.6 17 34.2 17 41 17 C41 22.61 41 28.22 41 34 C34.07 34 27.14 34 20 34 C20 28.72 20 23.44 20 18 C13.73 18 7.46 18 1 18 C1 23.28 1 28.56 1 34 C-5.93 34 -12.86 34 -20 34 C-20 28.39 -20 22.78 -20 17 C-13.4 17 -6.8 17 0 17 C0 11.39 0 5.78 0 0 Z " fill="#FCFCFC" transform="translate(1160,27)"/>
<path d="M0 0 C6.93 0 13.86 0 21 0 C21 5.61 21 11.22 21 17 C33.87 17 46.74 17 60 17 C60 22.61 60 28.22 60 34 C46.8 34 33.6 34 20 34 C20 28.72 20 23.44 20 18 C13.4 18 6.8 18 0 18 C0 12.06 0 6.12 0 0 Z " fill="#F9F9F9" transform="translate(1375,407)"/>
<path d="M0 0 C6.93 0 13.86 0 21 0 C21.09573067 11.39195018 20.79636709 22.63754815 20 34 C19.67 34 19.34 34 19 34 C19 28.72 19 23.44 19 18 C13.06 18 7.12 18 1 18 C1 23.28 1 28.56 1 34 C-5.93 34 -12.86 34 -20 34 C-20 28.39 -20 22.78 -20 17 C-13.4 17 -6.8 17 0 17 C0 11.39 0 5.78 0 0 Z " fill="#F3F3F3" transform="translate(769,483)"/>
<path d="M0 0 C6.93 0 13.86 0 21 0 C21.09573067 11.39195018 20.79636709 22.63754815 20 34 C19.67 34 19.34 34 19 34 C19 28.72 19 23.44 19 18 C13.06 18 7.12 18 1 18 C1 23.28 1 28.56 1 34 C-5.93 34 -12.86 34 -20 34 C-20 28.39 -20 22.78 -20 17 C-13.4 17 -6.8 17 0 17 C0 11.39 0 5.78 0 0 Z " fill="#F3F3F3" transform="translate(847,179)"/>
<path d="M0 0 C6.93 0 13.86 0 21 0 C21 5.94 21 11.88 21 18 C14.4 18 7.8 18 1 18 C1 23.28 1 28.56 1 34 C-5.93 34 -12.86 34 -20 34 C-20 28.39 -20 22.78 -20 17 C-13.4 17 -6.8 17 0 17 C0 11.39 0 5.78 0 0 Z " fill="#F4F4F4" transform="translate(671,483)"/>
<path d="M0 0 C6.93 0 13.86 0 21 0 C21 5.94 21 11.88 21 18 C14.4 18 7.8 18 1 18 C1 23.28 1 28.56 1 34 C-5.93 34 -12.86 34 -20 34 C-20 28.39 -20 22.78 -20 17 C-13.4 17 -6.8 17 0 17 C0 11.39 0 5.78 0 0 Z " fill="#F4F4F4" transform="translate(945,445)"/>
<path d="M0 0 C6.93 0 13.86 0 21 0 C21 5.94 21 11.88 21 18 C14.4 18 7.8 18 1 18 C1 23.28 1 28.56 1 34 C-5.93 34 -12.86 34 -20 34 C-20 28.39 -20 22.78 -20 17 C-13.4 17 -6.8 17 0 17 C0 11.39 0 5.78 0 0 Z " fill="#F4F4F4" transform="translate(358,445)"/>
<path d="M0 0 C6.93 0 13.86 0 21 0 C21 5.94 21 11.88 21 18 C14.4 18 7.8 18 1 18 C1 23.28 1 28.56 1 34 C-5.93 34 -12.86 34 -20 34 C-20 28.39 -20 22.78 -20 17 C-13.4 17 -6.8 17 0 17 C0 11.39 0 5.78 0 0 Z " fill="#ECECEC" transform="translate(1610,369)"/>
<path d="M0 0 C6.93 0 13.86 0 21 0 C21 5.61 21 11.22 21 17 C27.6 17 34.2 17 41 17 C41 22.61 41 28.22 41 34 C34.07 34 27.14 34 20 34 C20 28.72 20 23.44 20 18 C13.4 18 6.8 18 0 18 C0 12.06 0 6.12 0 0 Z " fill="#EBEBEB" transform="translate(1003,369)"/>
<path d="M0 0 C6.93 0 13.86 0 21 0 C21 5.94 21 11.88 21 18 C14.4 18 7.8 18 1 18 C1 23.28 1 28.56 1 34 C-5.93 34 -12.86 34 -20 34 C-20 28.39 -20 22.78 -20 17 C-13.4 17 -6.8 17 0 17 C0 11.39 0 5.78 0 0 Z " fill="#F4F4F4" transform="translate(632,369)"/>
<path d="M0 0 C6.93 0 13.86 0 21 0 C21 5.94 21 11.88 21 18 C14.4 18 7.8 18 1 18 C1 23.28 1 28.56 1 34 C-5.93 34 -12.86 34 -20 34 C-20 28.39 -20 22.78 -20 17 C-13.4 17 -6.8 17 0 17 C0 11.39 0 5.78 0 0 Z " fill="#F4F4F4" transform="translate(456,369)"/>
<path d="M0 0 C6.93 0 13.86 0 21 0 C21 5.94 21 11.88 21 18 C14.4 18 7.8 18 1 18 C1 23.28 1 28.56 1 34 C-5.93 34 -12.86 34 -20 34 C-20 28.39 -20 22.78 -20 17 C-13.4 17 -6.8 17 0 17 C0 11.39 0 5.78 0 0 Z " fill="#F4F4F4" transform="translate(1160,179)"/>
<path d="M0 0 C6.93 0 13.86 0 21 0 C21 5.94 21 11.88 21 18 C14.4 18 7.8 18 1 18 C1 23.28 1 28.56 1 34 C-5.93 34 -12.86 34 -20 34 C-20 28.39 -20 22.78 -20 17 C-13.4 17 -6.8 17 0 17 C0 11.39 0 5.78 0 0 Z " fill="#F4F4F4" transform="translate(534,179)"/>
<path d="M0 0 C6.93 0 13.86 0 21 0 C21 5.94 21 11.88 21 18 C14.4 18 7.8 18 1 18 C1 23.28 1 28.56 1 34 C-5.93 34 -12.86 34 -20 34 C-20 28.39 -20 22.78 -20 17 C-13.4 17 -6.8 17 0 17 C0 11.39 0 5.78 0 0 Z " fill="#F4F4F4" transform="translate(1121,141)"/>
<path d="M0 0 C6.93 0 13.86 0 21 0 C21 5.94 21 11.88 21 18 C14.4 18 7.8 18 1 18 C1 23.28 1 28.56 1 34 C-5.93 34 -12.86 34 -20 34 C-20 28.39 -20 22.78 -20 17 C-13.4 17 -6.8 17 0 17 C0 11.39 0 5.78 0 0 Z " fill="#ECECEC" transform="translate(886,65)"/>
<path d="M0 0 C6.93 0 13.86 0 21 0 C21 5.94 21 11.88 21 18 C14.4 18 7.8 18 1 18 C1 23.28 1 28.56 1 34 C-5.93 34 -12.86 34 -20 34 C-20 28.39 -20 22.78 -20 17 C-13.4 17 -6.8 17 0 17 C0 11.39 0 5.78 0 0 Z " fill="#F4F4F4" transform="translate(495,65)"/>
<path d="M0 0 C6.93 0 13.86 0 21 0 C21 5.94 21 11.88 21 18 C14.73 18 8.46 18 2 18 C2 23.28 2 28.56 2 34 C-4.93 34 -11.86 34 -19 34 C-19 28.39 -19 22.78 -19 17 C-12.73 17 -6.46 17 0 17 C0 11.39 0 5.78 0 0 Z " fill="#EDEDED" transform="translate(1590,483)"/>
<path d="M0 0 C6.93 0 13.86 0 21 0 C21 5.94 21 11.88 21 18 C14.73 18 8.46 18 2 18 C2 23.28 2 28.56 2 34 C-4.93 34 -11.86 34 -19 34 C-19 28.39 -19 22.78 -19 17 C-12.73 17 -6.46 17 0 17 C0 11.39 0 5.78 0 0 Z " fill="#EDEDED" transform="translate(1512,483)"/>
<path d="M0 0 C6.93 0 13.86 0 21 0 C21 5.94 21 11.88 21 18 C14.73 18 8.46 18 2 18 C2 23.28 2 28.56 2 34 C-4.93 34 -11.86 34 -19 34 C-19 28.39 -19 22.78 -19 17 C-12.73 17 -6.46 17 0 17 C0 11.39 0 5.78 0 0 Z " fill="#EDEDED" transform="translate(1003,483)"/>
<path d="M0 0 C10.23 0 20.46 0 31 0 C31.020625 2.784375 31.04125 5.56875 31.0625 8.4375 C31.071604 9.31591553 31.08070801 10.19433105 31.09008789 11.09936523 C31.09723091 13.06645974 31.05031893 15.03353621 31 17 C30 18 30 18 28.14233398 18.11352539 C27.35157471 18.10828857 26.56081543 18.10305176 25.74609375 18.09765625 C24.89208984 18.09443359 24.03808594 18.09121094 23.15820312 18.08789062 C21.81145508 18.07532227 21.81145508 18.07532227 20.4375 18.0625 C19.53580078 18.05798828 18.63410156 18.05347656 17.70507812 18.04882812 C15.47002411 18.03700244 13.23500398 18.01906638 11 18 C11 23.28 11 28.56 11 34 C7.37 34 3.74 34 0 34 C0 22.78 0 11.56 0 0 Z " fill="#F0F0F0" transform="translate(1287,483)"/>
<path d="M0 0 C6.93 0 13.86 0 21 0 C21 5.94 21 11.88 21 18 C14.73 18 8.46 18 2 18 C2 23.28 2 28.56 2 34 C-4.93 34 -11.86 34 -19 34 C-19 28.39 -19 22.78 -19 17 C-12.73 17 -6.46 17 0 17 C0 11.39 0 5.78 0 0 Z " fill="#EDEDED" transform="translate(612,445)"/>
<path d="M0 0 C6.93 0 13.86 0 21 0 C21 5.94 21 11.88 21 18 C14.73 18 8.46 18 2 18 C2 23.28 2 28.56 2 34 C-4.93 34 -11.86 34 -19 34 C-19 28.39 -19 22.78 -19 17 C-12.73 17 -6.46 17 0 17 C0 11.39 0 5.78 0 0 Z " fill="#EDEDED" transform="translate(64,445)"/>
<path d="M0 0 C6.93 0 13.86 0 21 0 C21 5.61 21 11.22 21 17 C27.27 17 33.54 17 40 17 C40 22.61 40 28.22 40 34 C33.07 34 26.14 34 19 34 C19 28.72 19 23.44 19 18 C12.73 18 6.46 18 0 18 C0 12.06 0 6.12 0 0 Z " fill="#ECECEC" transform="translate(221,445)"/>
<path d="M0 0 C6.93 0 13.86 0 21 0 C21 5.94 21 11.88 21 18 C14.73 18 8.46 18 2 18 C2 23.28 2 28.56 2 34 C-4.93 34 -11.86 34 -19 34 C-19 28.39 -19 22.78 -19 17 C-12.73 17 -6.46 17 0 17 C0 11.39 0 5.78 0 0 Z " fill="#EDEDED" transform="translate(964,369)"/>
<path d="M0 0 C6.93 0 13.86 0 21 0 C21 5.94 21 11.88 21 18 C14.73 18 8.46 18 2 18 C2 23.28 2 28.56 2 34 C-4.93 34 -11.86 34 -19 34 C-19 28.39 -19 22.78 -19 17 C-12.73 17 -6.46 17 0 17 C0 11.39 0 5.78 0 0 Z " fill="#EDEDED" transform="translate(788,369)"/>
<path d="M0 0 C6.93 0 13.86 0 21 0 C21 5.61 21 11.22 21 17 C27.27 17 33.54 17 40 17 C40 22.61 40 28.22 40 34 C33.07 34 26.14 34 19 34 C19 28.72 19 23.44 19 18 C12.73 18 6.46 18 0 18 C0 12.06 0 6.12 0 0 Z " fill="#ECECEC" transform="translate(671,369)"/>
<path d="M0 0 C6.93 0 13.86 0 21 0 C21 5.94 21 11.88 21 18 C14.73 18 8.46 18 2 18 C2 23.28 2 28.56 2 34 C-4.93 34 -11.86 34 -19 34 C-19 28.39 -19 22.78 -19 17 C-12.73 17 -6.46 17 0 17 C0 11.39 0 5.78 0 0 Z " fill="#EDEDED" transform="translate(1140,217)"/>
<path d="M0 0 C6.93 0 13.86 0 21 0 C21 5.94 21 11.88 21 18 C14.73 18 8.46 18 2 18 C2 23.28 2 28.56 2 34 C-4.93 34 -11.86 34 -19 34 C-19 28.39 -19 22.78 -19 17 C-12.73 17 -6.46 17 0 17 C0 11.39 0 5.78 0 0 Z " fill="#EDEDED" transform="translate(1062,217)"/>
<path d="M0 0 C6.93 0 13.86 0 21 0 C21 5.94 21 11.88 21 18 C14.73 18 8.46 18 2 18 C2 23.28 2 28.56 2 34 C-4.93 34 -11.86 34 -19 34 C-19 28.39 -19 22.78 -19 17 C-12.73 17 -6.46 17 0 17 C0 11.39 0 5.78 0 0 Z " fill="#EDEDED" transform="translate(475,141)"/>
<path d="M0 0 C6.93 0 13.86 0 21 0 C21 5.61 21 11.22 21 17 C27.27 17 33.54 17 40 17 C40 22.61 40 28.22 40 34 C33.07 34 26.14 34 19 34 C19 28.72 19 23.44 19 18 C12.73 18 6.46 18 0 18 C0 12.06 0 6.12 0 0 Z " fill="#ECECEC" transform="translate(534,65)"/>
<path d="M0 0 C6.93 0 13.86 0 21 0 C21 11.22 21 22.44 21 34 C14.07 34 7.14 34 0 34 C0 22.78 0 11.56 0 0 Z " fill="#F7F7F7" transform="translate(1561,521)"/>
<path d="M0 0 C6.93 0 13.86 0 21 0 C21 11.22 21 22.44 21 34 C14.07 34 7.14 34 0 34 C0 22.78 0 11.56 0 0 Z " fill="#F8F8F8" transform="translate(1483,521)"/>
<path d="M0 0 C6.93 0 13.86 0 21 0 C21 11.22 21 22.44 21 34 C14.07 34 7.14 34 0 34 C0 22.78 0 11.56 0 0 Z " fill="#F7F7F7" transform="translate(739,521)"/>
<path d="M0 0 C6.93 0 13.86 0 21 0 C21 11.22 21 22.44 21 34 C14.07 34 7.14 34 0 34 C0 22.78 0 11.56 0 0 Z " fill="#F8F8F8" transform="translate(407,521)"/>
<path d="M0 0 C6.93 0 13.86 0 21 0 C21 11.22 21 22.44 21 34 C14.07 34 7.14 34 0 34 C0 22.78 0 11.56 0 0 Z " fill="#F8F8F8" transform="translate(906,483)"/>
<path d="M0 0 C6.93 0 13.86 0 21 0 C21 11.22 21 22.44 21 34 C14.07 34 7.14 34 0 34 C0 22.78 0 11.56 0 0 Z " fill="#F8F8F8" transform="translate(573,483)"/>
<path d="M0 0 C6.93 0 13.86 0 21 0 C21 11.22 21 22.44 21 34 C14.07 34 7.14 34 0 34 C0 22.78 0 11.56 0 0 Z " fill="#F8F8F8" transform="translate(143,483)"/>
<path d="M0 0 C6.93 0 13.86 0 21 0 C21 11.22 21 22.44 21 34 C14.07 34 7.14 34 0 34 C0 22.78 0 11.56 0 0 Z " fill="#F7F7F7" transform="translate(25,483)"/>
<path d="M0 0 C6.93 0 13.86 0 21 0 C21 11.22 21 22.44 21 34 C14.07 34 7.14 34 0 34 C0 22.78 0 11.56 0 0 Z " fill="#F7F7F7" transform="translate(1590,445)"/>
<path d="M0 0 C6.93 0 13.86 0 21 0 C21 11.22 21 22.44 21 34 C14.07 34 7.14 34 0 34 C0 22.78 0 11.56 0 0 Z " fill="#F7F7F7" transform="translate(1512,445)"/>
<path d="M0 0 C6.93 0 13.86 0 21 0 C21 11.22 21 22.44 21 34 C14.07 34 7.14 34 0 34 C0 22.78 0 11.56 0 0 Z " fill="#F8F8F8" transform="translate(1434,445)"/>
<path d="M0 0 C6.93 0 13.86 0 21 0 C21 11.22 21 22.44 21 34 C14.07 34 7.14 34 0 34 C0 22.78 0 11.56 0 0 Z " fill="#F8F8F8" transform="translate(1395,445)"/>
<path d="M0 0 C6.93 0 13.86 0 21 0 C21 11.22 21 22.44 21 34 C14.07 34 7.14 34 0 34 C0 22.78 0 11.56 0 0 Z " fill="#F7F7F7" transform="translate(1277,445)"/>
<path d="M0 0 C6.93 0 13.86 0 21 0 C21 11.22 21 22.44 21 34 C14.07 34 7.14 34 0 34 C0 22.78 0 11.56 0 0 Z " fill="#F7F7F7" transform="translate(1199,445)"/>
<path d="M0 0 C6.93 0 13.86 0 21 0 C21 11.22 21 22.44 21 34 C14.07 34 7.14 34 0 34 C0 22.78 0 11.56 0 0 Z " fill="#F7F7F7" transform="translate(1101,445)"/>
<path d="M0 0 C6.93 0 13.86 0 21 0 C21 11.22 21 22.44 21 34 C14.07 34 7.14 34 0 34 C0 22.78 0 11.56 0 0 Z " fill="#F7F7F7" transform="translate(1023,445)"/>
<path d="M0 0 C6.93 0 13.86 0 21 0 C21 11.22 21 22.44 21 34 C14.07 34 7.14 34 0 34 C0 22.78 0 11.56 0 0 Z " fill="#F8F8F8" transform="translate(847,445)"/>
<path d="M0 0 C6.93 0 13.86 0 21 0 C21 11.22 21 22.44 21 34 C14.07 34 7.14 34 0 34 C0 22.78 0 11.56 0 0 Z " fill="#F8F8F8" transform="translate(769,445)"/>
<path d="M0 0 C6.93 0 13.86 0 21 0 C21 11.22 21 22.44 21 34 C14.07 34 7.14 34 0 34 C0 22.78 0 11.56 0 0 Z " fill="#F7F7F7" transform="translate(690,445)"/>
<path d="M0 0 C6.93 0 13.86 0 21 0 C21 11.22 21 22.44 21 34 C14.07 34 7.14 34 0 34 C0 22.78 0 11.56 0 0 Z " fill="#F8F8F8" transform="translate(534,445)"/>
<path d="M0 0 C6.93 0 13.86 0 21 0 C21 11.22 21 22.44 21 34 C14.07 34 7.14 34 0 34 C0 22.78 0 11.56 0 0 Z " fill="#F7F7F7" transform="translate(436,445)"/>
<path d="M0 0 C6.93 0 13.86 0 21 0 C21 11.22 21 22.44 21 34 C14.07 34 7.14 34 0 34 C0 22.78 0 11.56 0 0 Z " fill="#F7F7F7" transform="translate(162,445)"/>
<path d="M0 0 C6.93 0 13.86 0 21 0 C21 11.22 21 22.44 21 34 C14.07 34 7.14 34 0 34 C0 22.78 0 11.56 0 0 Z " fill="#F7F7F7" transform="translate(1277,407)"/>
<path d="M0 0 C6.93 0 13.86 0 21 0 C21 11.22 21 22.44 21 34 C14.07 34 7.14 34 0 34 C0 22.78 0 11.56 0 0 Z " fill="#F8F8F8" transform="translate(1219,407)"/>
<path d="M0 0 C6.93 0 13.86 0 21 0 C21 11.22 21 22.44 21 34 C14.07 34 7.14 34 0 34 C0 22.78 0 11.56 0 0 Z " fill="#F8F8F8" transform="translate(1121,407)"/>
<path d="M0 0 C6.93 0 13.86 0 21 0 C21 11.22 21 22.44 21 34 C14.07 34 7.14 34 0 34 C0 22.78 0 11.56 0 0 Z " fill="#F8F8F8" transform="translate(534,407)"/>
<path d="M0 0 C6.93 0 13.86 0 21 0 C21 11.22 21 22.44 21 34 C14.07 34 7.14 34 0 34 C0 22.78 0 11.56 0 0 Z " fill="#F7F7F7" transform="translate(436,407)"/>
<path d="M0 0 C6.93 0 13.86 0 21 0 C21 11.22 21 22.44 21 34 C14.07 34 7.14 34 0 34 C0 22.78 0 11.56 0 0 Z " fill="#F8F8F8" transform="translate(358,407)"/>
<path d="M0 0 C6.93 0 13.86 0 21 0 C21 11.22 21 22.44 21 34 C14.07 34 7.14 34 0 34 C0 22.78 0 11.56 0 0 Z " fill="#F8F8F8" transform="translate(221,407)"/>
<path d="M0 0 C6.93 0 13.86 0 21 0 C21 11.22 21 22.44 21 34 C14.07 34 7.14 34 0 34 C0 22.78 0 11.56 0 0 Z " fill="#F7F7F7" transform="translate(1512,369)"/>
<path d="M0 0 C6.93 0 13.86 0 21 0 C21 11.22 21 22.44 21 34 C14.07 34 7.14 34 0 34 C0 22.78 0 11.56 0 0 Z " fill="#F7F7F7" transform="translate(1453,369)"/>
<path d="M0 0 C6.93 0 13.86 0 21 0 C21 11.22 21 22.44 21 34 C14.07 34 7.14 34 0 34 C0 22.78 0 11.56 0 0 Z " fill="#F7F7F7" transform="translate(1277,369)"/>
<path d="M0 0 C6.93 0 13.86 0 21 0 C21 11.22 21 22.44 21 34 C14.07 34 7.14 34 0 34 C0 22.78 0 11.56 0 0 Z " fill="#F7F7F7" transform="translate(1238,369)"/>
<path d="M0 0 C6.93 0 13.86 0 21 0 C21 11.22 21 22.44 21 34 C14.07 34 7.14 34 0 34 C0 22.78 0 11.56 0 0 Z " fill="#F7F7F7" transform="translate(1140,369)"/>
<path d="M0 0 C6.93 0 13.86 0 21 0 C21 11.22 21 22.44 21 34 C14.07 34 7.14 34 0 34 C0 22.78 0 11.56 0 0 Z " fill="#F7F7F7" transform="translate(1062,369)"/>
<path d="M0 0 C6.93 0 13.86 0 21 0 C21 11.22 21 22.44 21 34 C14.07 34 7.14 34 0 34 C0 22.78 0 11.56 0 0 Z " fill="#F7F7F7" transform="translate(866,369)"/>
<path d="M0 0 C6.93 0 13.86 0 21 0 C21 11.22 21 22.44 21 34 C14.07 34 7.14 34 0 34 C0 22.78 0 11.56 0 0 Z " fill="#F8F8F8" transform="translate(534,369)"/>
<path d="M0 0 C6.93 0 13.86 0 21 0 C21 11.22 21 22.44 21 34 C14.07 34 7.14 34 0 34 C0 22.78 0 11.56 0 0 Z " fill="#F8F8F8" transform="translate(397,369)"/>
<path d="M0 0 C6.93 0 13.86 0 21 0 C21 11.22 21 22.44 21 34 C14.07 34 7.14 34 0 34 C0 22.78 0 11.56 0 0 Z " fill="#F8F8F8" transform="translate(358,369)"/>
<path d="M0 0 C6.93 0 13.86 0 21 0 C21 11.22 21 22.44 21 34 C14.07 34 7.14 34 0 34 C0 22.78 0 11.56 0 0 Z " fill="#F8F8F8" transform="translate(221,369)"/>
<path d="M0 0 C6.93 0 13.86 0 21 0 C21 11.22 21 22.44 21 34 C14.07 34 7.14 34 0 34 C0 22.78 0 11.56 0 0 Z " fill="#F8F8F8" transform="translate(182,369)"/>
<path d="M0 0 C6.93 0 13.86 0 21 0 C21 11.22 21 22.44 21 34 C14.07 34 7.14 34 0 34 C0 22.78 0 11.56 0 0 Z " fill="#F7F7F7" transform="translate(103,369)"/>
<path d="M0 0 C6.93 0 13.86 0 21 0 C21 11.22 21 22.44 21 34 C14.07 34 7.14 34 0 34 C0 22.78 0 11.56 0 0 Z " fill="#F7F7F7" transform="translate(25,369)"/>
<path d="M0 0 C6.93 0 13.86 0 21 0 C21 11.22 21 22.44 21 34 C14.07 34 7.14 34 0 34 C0 22.78 0 11.56 0 0 Z " fill="#F7F7F7" transform="translate(1023,255)"/>
<path d="M0 0 C6.93 0 13.86 0 21 0 C21 11.22 21 22.44 21 34 C14.07 34 7.14 34 0 34 C0 22.78 0 11.56 0 0 Z " fill="#F7F7F7" transform="translate(827,217)"/>
<path d="M0 0 C6.93 0 13.86 0 21 0 C21 11.22 21 22.44 21 34 C14.07 34 7.14 34 0 34 C0 22.78 0 11.56 0 0 Z " fill="#F8F8F8" transform="translate(632,217)"/>
<path d="M0 0 C6.93 0 13.86 0 21 0 C21 11.22 21 22.44 21 34 C14.07 34 7.14 34 0 34 C0 22.78 0 11.56 0 0 Z " fill="#F8F8F8" transform="translate(1082,179)"/>
<path d="M0 0 C6.93 0 13.86 0 21 0 C21 11.22 21 22.44 21 34 C14.07 34 7.14 34 0 34 C0 22.78 0 11.56 0 0 Z " fill="#F7F7F7" transform="translate(436,179)"/>
<path d="M0 0 C6.93 0 13.86 0 21 0 C21 11.22 21 22.44 21 34 C14.07 34 7.14 34 0 34 C0 22.78 0 11.56 0 0 Z " fill="#F8F8F8" transform="translate(1160,141)"/>
<path d="M0 0 C6.93 0 13.86 0 21 0 C21 11.22 21 22.44 21 34 C14.07 34 7.14 34 0 34 C0 22.78 0 11.56 0 0 Z " fill="#F8F8F8" transform="translate(847,141)"/>
<path d="M0 0 C6.93 0 13.86 0 21 0 C21 11.22 21 22.44 21 34 C14.07 34 7.14 34 0 34 C0 22.78 0 11.56 0 0 Z " fill="#F8F8F8" transform="translate(671,141)"/>
<path d="M0 0 C6.93 0 13.86 0 21 0 C21 11.22 21 22.44 21 34 C14.07 34 7.14 34 0 34 C0 22.78 0 11.56 0 0 Z " fill="#F7F7F7" transform="translate(553,141)"/>
<path d="M0 0 C6.93 0 13.86 0 21 0 C21 11.22 21 22.44 21 34 C14.07 34 7.14 34 0 34 C0 22.78 0 11.56 0 0 Z " fill="#F7F7F7" transform="translate(690,103)"/>
<path d="M0 0 C6.93 0 13.86 0 21 0 C21 11.22 21 22.44 21 34 C14.07 34 7.14 34 0 34 C0 22.78 0 11.56 0 0 Z " fill="#F8F8F8" transform="translate(1180,65)"/>
<path d="M0 0 C6.93 0 13.86 0 21 0 C21 11.22 21 22.44 21 34 C14.07 34 7.14 34 0 34 C0 22.78 0 11.56 0 0 Z " fill="#F7F7F7" transform="translate(1101,65)"/>
<path d="M0 0 C6.93 0 13.86 0 21 0 C21 11.22 21 22.44 21 34 C14.07 34 7.14 34 0 34 C0 22.78 0 11.56 0 0 Z " fill="#F7F7F7" transform="translate(1003,65)"/>
<path d="M0 0 C6.93 0 13.86 0 21 0 C21 11.22 21 22.44 21 34 C14.07 34 7.14 34 0 34 C0 22.78 0 11.56 0 0 Z " fill="#F7F7F7" transform="translate(690,65)"/>
<path d="M0 0 C6.93 0 13.86 0 21 0 C21 11.22 21 22.44 21 34 C14.07 34 7.14 34 0 34 C0 22.78 0 11.56 0 0 Z " fill="#F8F8F8" transform="translate(593,65)"/>
<path d="M0 0 C13.2 0 26.4 0 40 0 C40 5.61 40 11.22 40 17 C26.8 17 13.6 17 0 17 C0 11.39 0 5.78 0 0 Z " fill="#FEFEFE" transform="translate(1571,348)"/>
<path d="M0 0 C6.93 0 13.86 0 21 0 C21 0.33 21 0.66 21 1 C14.4 1 7.8 1 1 1 C1 6.28 1 11.56 1 17 C7.27 17 13.54 17 20 17 C20 17.33 20 17.66 20 18 C13.73 18 7.46 18 1 18 C1 23.28 1 28.56 1 34 C-5.93 34 -12.86 34 -20 34 C-20 28.39 -20 22.78 -20 17 C-13.4 17 -6.8 17 0 17 C0 11.39 0 5.78 0 0 Z " fill="#ECECEC" transform="translate(436,483)"/>
<path d="M0 0 C6.93 0 13.86 0 21 0 C21 5.61 21 11.22 21 17 C27.6 17 34.2 17 41 17 C41 22.61 41 28.22 41 34 C34.07 34 27.14 34 20 34 C20 28.72 20 23.44 20 18 C13.73 18 7.46 18 1 18 C1 17.67 1 17.34 1 17 C7.27 17 13.54 17 20 17 C20 11.72 20 6.44 20 1 C13.4 1 6.8 1 0 1 C0 0.67 0 0.34 0 0 Z " fill="#EEEEEE" transform="translate(1160,27)"/>
<path d="M0 0 C6.6 0 13.2 0 20 0 C20 0.33 20 0.66 20 1 C13.73 1 7.46 1 1 1 C1 6.28 1 11.56 1 17 C7.27 17 13.54 17 20 17 C20 17.33 20 17.66 20 18 C13.73 18 7.46 18 1 18 C1 23.28 1 28.56 1 34 C-5.93 34 -12.86 34 -20 34 C-20 28.39 -20 22.78 -20 17 C-13.4 17 -6.8 17 0 17 C0 11.39 0 5.78 0 0 Z " fill="#EDEDED" transform="translate(436,331)"/>
<path d="M0 0 C6.93 0 13.86 0 21 0 C21.08905302 11.39878687 20.86698245 22.63633714 20 34 C19.67 34 19.34 34 19 34 C19 28.72 19 23.44 19 18 C12.73 18 6.46 18 0 18 C0 12.06 0 6.12 0 0 Z " fill="#ECECEC" transform="translate(1121,483)"/>
<path d="M0 0 C6.93 0 13.86 0 21 0 C21.09573067 11.39195018 20.79636709 22.63754815 20 34 C19.67 34 19.34 34 19 34 C19 28.72 19 23.44 19 18 C12.73 18 6.46 18 0 18 C0 12.06 0 6.12 0 0 Z " fill="#ECECEC" transform="translate(1121,103)"/>
<path d="M0 0 C3.63 0 7.26 0 11 0 C11 11.22 11 22.44 11 34 C7.37 34 3.74 34 0 34 C0 22.78 0 11.56 0 0 Z " fill="#F4F4F4" transform="translate(1552,559)"/>
<path d="M0 0 C3.63 0 7.26 0 11 0 C11 11.22 11 22.44 11 34 C7.37 34 3.74 34 0 34 C0 22.78 0 11.56 0 0 Z " fill="#F0F0F0" transform="translate(1473,559)"/>
<path d="M0 0 C3.63 0 7.26 0 11 0 C11 11.22 11 22.44 11 34 C7.37 34 3.74 34 0 34 C0 22.78 0 11.56 0 0 Z " fill="#F4F4F4" transform="translate(730,559)"/>
<path d="M0 0 C3.63 0 7.26 0 11 0 C11 11.22 11 22.44 11 34 C7.37 34 3.74 34 0 34 C0 22.78 0 11.56 0 0 Z " fill="#F0F0F0" transform="translate(397,559)"/>
<path d="M0 0 C3.63 0 7.26 0 11 0 C11 11.22 11 22.44 11 34 C7.37 34 3.74 34 0 34 C0 22.78 0 11.56 0 0 Z " fill="#F0F0F0" transform="translate(1297,521)"/>
<path d="M0 0 C3.63 0 7.26 0 11 0 C11 11.22 11 22.44 11 34 C7.37 34 3.74 34 0 34 C0 22.78 0 11.56 0 0 Z " fill="#F4F4F4" transform="translate(1004,521)"/>
<path d="M0 0 C3.63 0 7.26 0 11 0 C11 11.22 11 22.44 11 34 C7.37 34 3.74 34 0 34 C0 22.78 0 11.56 0 0 Z " fill="#F0F0F0" transform="translate(925,521)"/>
<path d="M0 0 C3.63 0 7.26 0 11 0 C11 11.22 11 22.44 11 34 C7.37 34 3.74 34 0 34 C0 22.78 0 11.56 0 0 Z " fill="#F0F0F0" transform="translate(847,521)"/>
<path d="M0 0 C3.63 0 7.26 0 11 0 C11 11.22 11 22.44 11 34 C7.37 34 3.74 34 0 34 C0 22.78 0 11.56 0 0 Z " fill="#F0F0F0" transform="translate(671,521)"/>
<path d="M0 0 C3.63 0 7.26 0 11 0 C11 11.22 11 22.44 11 34 C7.37 34 3.74 34 0 34 C0 22.78 0 11.56 0 0 Z " fill="#F4F4F4" transform="translate(593,521)"/>
<path d="M0 0 C3.63 0 7.26 0 11 0 C11 11.22 11 22.44 11 34 C7.37 34 3.74 34 0 34 C0 22.78 0 11.56 0 0 Z " fill="#F0F0F0" transform="translate(534,521)"/>
<path d="M0 0 C3.63 0 7.26 0 11 0 C11 11.22 11 22.44 11 34 C7.37 34 3.74 34 0 34 C0 22.78 0 11.56 0 0 Z " fill="#F0F0F0" transform="translate(162,521)"/>
<path d="M0 0 C3.63 0 7.26 0 11 0 C11 11.22 11 22.44 11 34 C7.37 34 3.74 34 0 34 C0 22.78 0 11.56 0 0 Z " fill="#F4F4F4" transform="translate(45,521)"/>
<path d="M0 0 C3.63 0 7.26 0 11 0 C11 11.22 11 22.44 11 34 C7.37 34 3.74 34 0 34 C0 22.78 0 11.56 0 0 Z " fill="#F4F4F4" transform="translate(1444,483)"/>
<path d="M0 0 C3.63 0 7.26 0 11 0 C11 11.22 11 22.44 11 34 C7.37 34 3.74 34 0 34 C0 22.78 0 11.56 0 0 Z " fill="#F0F0F0" transform="translate(1463,407)"/>
<path d="M0 0 C3.63 0 7.26 0 11 0 C11 11.22 11 22.44 11 34 C7.37 34 3.74 34 0 34 C0 22.78 0 11.56 0 0 Z " fill="#F0F0F0" transform="translate(1072,407)"/>
<path d="M0 0 C3.63 0 7.26 0 11 0 C11 11.22 11 22.44 11 34 C7.37 34 3.74 34 0 34 C0 22.78 0 11.56 0 0 Z " fill="#F4F4F4" transform="translate(407,407)"/>
<path d="M0 0 C3.63 0 7.26 0 11 0 C11 11.22 11 22.44 11 34 C7.37 34 3.74 34 0 34 C0 22.78 0 11.56 0 0 Z " fill="#F0F0F0" transform="translate(35,407)"/>
<path d="M0 0 C3.63 0 7.26 0 11 0 C11 11.22 11 22.44 11 34 C7.37 34 3.74 34 0 34 C0 22.78 0 11.56 0 0 Z " fill="#F4F4F4" transform="translate(916,369)"/>
<path d="M0 0 C3.63 0 7.26 0 11 0 C11 11.22 11 22.44 11 34 C7.37 34 3.74 34 0 34 C0 22.78 0 11.56 0 0 Z " fill="#F4F4F4" transform="translate(740,369)"/>
<path d="M0 0 C3.63 0 7.26 0 11 0 C11 11.22 11 22.44 11 34 C7.37 34 3.74 34 0 34 C0 22.78 0 11.56 0 0 Z " fill="#F4F4F4" transform="translate(583,369)"/>
<path d="M0 0 C3.63 0 7.26 0 11 0 C11 11.22 11 22.44 11 34 C7.37 34 3.74 34 0 34 C0 22.78 0 11.56 0 0 Z " fill="#F4F4F4" transform="translate(1131,255)"/>
<path d="M0 0 C3.63 0 7.26 0 11 0 C11 11.22 11 22.44 11 34 C7.37 34 3.74 34 0 34 C0 22.78 0 11.56 0 0 Z " fill="#F0F0F0" transform="translate(837,255)"/>
<path d="M0 0 C3.63 0 7.26 0 11 0 C11 11.22 11 22.44 11 34 C7.37 34 3.74 34 0 34 C0 22.78 0 11.56 0 0 Z " fill="#F4F4F4" transform="translate(642,255)"/>
<path d="M0 0 C3.63 0 7.26 0 11 0 C11 11.22 11 22.44 11 34 C7.37 34 3.74 34 0 34 C0 22.78 0 11.56 0 0 Z " fill="#F0F0F0" transform="translate(935,217)"/>
<path d="M0 0 C3.63 0 7.26 0 11 0 C11 11.22 11 22.44 11 34 C7.37 34 3.74 34 0 34 C0 22.78 0 11.56 0 0 Z " fill="#F0F0F0" transform="translate(524,217)"/>
<path d="M0 0 C3.63 0 7.26 0 11 0 C11 11.22 11 22.44 11 34 C7.37 34 3.74 34 0 34 C0 22.78 0 11.56 0 0 Z " fill="#F0F0F0" transform="translate(446,217)"/>
<path d="M0 0 C3.63 0 7.26 0 11 0 C11 11.22 11 22.44 11 34 C7.37 34 3.74 34 0 34 C0 22.78 0 11.56 0 0 Z " fill="#F2F2F2" transform="translate(945,141)"/>
<path d="M0 0 C3.63 0 7.26 0 11 0 C11 11.22 11 22.44 11 34 C7.37 34 3.74 34 0 34 C0 22.78 0 11.56 0 0 Z " fill="#F0F0F0" transform="translate(1013,103)"/>
<path d="M0 0 C3.63 0 7.26 0 11 0 C11 11.22 11 22.44 11 34 C7.37 34 3.74 34 0 34 C0 22.78 0 11.56 0 0 Z " fill="#F4F4F4" transform="translate(603,103)"/>
<path d="M0 0 C3.63 0 7.26 0 11 0 C11 11.22 11 22.44 11 34 C7.37 34 3.74 34 0 34 C0 22.78 0 11.56 0 0 Z " fill="#F0F0F0" transform="translate(974,65)"/>
<path d="M0 0 C3.63 0 7.26 0 11 0 C11 11.22 11 22.44 11 34 C7.37 34 3.74 34 0 34 C0 22.78 0 11.56 0 0 Z " fill="#F4F4F4" transform="translate(818,65)"/>
<path d="M0 0 C3.63 0 7.26 0 11 0 C11 11.22 11 22.44 11 34 C7.37 34 3.74 34 0 34 C0 22.78 0 11.56 0 0 Z " fill="#F0F0F0" transform="translate(446,65)"/>
<path d="M0 0 C6.6 0 13.2 0 20 0 C20 5.61 20 11.22 20 17 C13.4 17 6.8 17 0 17 C0 11.39 0 5.78 0 0 Z " fill="#FFFFFF" transform="translate(241,462)"/>
<path d="M0 0 C6.6 0 13.2 0 20 0 C20 5.61 20 11.22 20 17 C13.4 17 6.8 17 0 17 C0 11.39 0 5.78 0 0 Z " fill="#FFFFFF" transform="translate(1024,386)"/>
<path d="M0 0 C6.6 0 13.2 0 20 0 C20 5.61 20 11.22 20 17 C13.4 17 6.8 17 0 17 C0 11.39 0 5.78 0 0 Z " fill="#FFFFFF" transform="translate(691,386)"/>
<path d="M0 0 C6.6 0 13.2 0 20 0 C20 5.61 20 11.22 20 17 C13.4 17 6.8 17 0 17 C0 11.39 0 5.78 0 0 Z " fill="#FEFEFE" transform="translate(1297,348)"/>
<path d="M0 0 C6.6 0 13.2 0 20 0 C20 5.61 20 11.22 20 17 C13.4 17 6.8 17 0 17 C0 11.39 0 5.78 0 0 Z " fill="#FFFFFF" transform="translate(1239,348)"/>
<path d="M0 0 C6.6 0 13.2 0 20 0 C20 5.61 20 11.22 20 17 C13.4 17 6.8 17 0 17 C0 11.39 0 5.78 0 0 Z " fill="#FEFEFE" transform="translate(1180,348)"/>
<path d="M0 0 C6.6 0 13.2 0 20 0 C20 5.61 20 11.22 20 17 C13.4 17 6.8 17 0 17 C0 11.39 0 5.78 0 0 Z " fill="#FFFFFF" transform="translate(1141,348)"/>
<path d="M0 0 C6.6 0 13.2 0 20 0 C20 5.61 20 11.22 20 17 C13.4 17 6.8 17 0 17 C0 11.39 0 5.78 0 0 Z " fill="#FEFEFE" transform="translate(1082,348)"/>
<path d="M0 0 C6.6 0 13.2 0 20 0 C20 5.61 20 11.22 20 17 C13.4 17 6.8 17 0 17 C0 11.39 0 5.78 0 0 Z " fill="#FEFEFE" transform="translate(593,348)"/>
<path d="M0 0 C6.6 0 13.2 0 20 0 C20 5.61 20 11.22 20 17 C13.4 17 6.8 17 0 17 C0 11.39 0 5.78 0 0 Z " fill="#FFFFFF" transform="translate(339,348)"/>
<path d="M0 0 C6.6 0 13.2 0 20 0 C20 5.61 20 11.22 20 17 C13.4 17 6.8 17 0 17 C0 11.39 0 5.78 0 0 Z " fill="#FEFEFE" transform="translate(45,348)"/>
<path d="M0 0 C6.6 0 13.2 0 20 0 C20 5.61 20 11.22 20 17 C13.4 17 6.8 17 0 17 C0 11.39 0 5.78 0 0 Z " fill="#FFFFFF" transform="translate(554,82)"/>
<path d="M0 0 C6.6 0 13.2 0 20 0 C20 5.61 20 11.22 20 17 C13.4 17 6.8 17 0 17 C0 11.39 0 5.78 0 0 Z " fill="#FEFEFE" transform="translate(456,44)"/>
<path d="M0 0 C6.6 0 13.2 0 20 0 C20 5.28 20 10.56 20 16 C13.4 16 6.8 16 0 16 C0 10.72 0 5.44 0 0 Z " fill="#FFFFFF" transform="translate(1591,484)"/>
<path d="M0 0 C6.6 0 13.2 0 20 0 C20 5.28 20 10.56 20 16 C13.4 16 6.8 16 0 16 C0 10.72 0 5.44 0 0 Z " fill="#FFFFFF" transform="translate(1513,484)"/>
<path d="M0 0 C6.6 0 13.2 0 20 0 C20 5.28 20 10.56 20 16 C13.4 16 6.8 16 0 16 C0 10.72 0 5.44 0 0 Z " fill="#FFFFFF" transform="translate(1004,484)"/>
<path d="M0 0 C6.6 0 13.2 0 20 0 C20 5.28 20 10.56 20 16 C13.4 16 6.8 16 0 16 C0 10.72 0 5.44 0 0 Z " fill="#FFFFFF" transform="translate(613,446)"/>
<path d="M0 0 C6.6 0 13.2 0 20 0 C20 5.28 20 10.56 20 16 C13.4 16 6.8 16 0 16 C0 10.72 0 5.44 0 0 Z " fill="#FFFFFF" transform="translate(65,446)"/>
<path d="M0 0 C6.6 0 13.2 0 20 0 C20 5.28 20 10.56 20 16 C13.4 16 6.8 16 0 16 C0 10.72 0 5.44 0 0 Z " fill="#FFFFFF" transform="translate(1611,370)"/>
<path d="M0 0 C6.6 0 13.2 0 20 0 C20 5.28 20 10.56 20 16 C13.4 16 6.8 16 0 16 C0 10.72 0 5.44 0 0 Z " fill="#FFFFFF" transform="translate(965,370)"/>
<path d="M0 0 C6.6 0 13.2 0 20 0 C20 5.28 20 10.56 20 16 C13.4 16 6.8 16 0 16 C0 10.72 0 5.44 0 0 Z " fill="#FFFFFF" transform="translate(789,370)"/>
<path d="M0 0 C6.6 0 13.2 0 20 0 C20 5.28 20 10.56 20 16 C13.4 16 6.8 16 0 16 C0 10.72 0 5.44 0 0 Z " fill="#FFFFFF" transform="translate(1141,218)"/>
<path d="M0 0 C6.6 0 13.2 0 20 0 C20 5.28 20 10.56 20 16 C13.4 16 6.8 16 0 16 C0 10.72 0 5.44 0 0 Z " fill="#FFFFFF" transform="translate(1063,218)"/>
<path d="M0 0 C6.6 0 13.2 0 20 0 C20 5.28 20 10.56 20 16 C13.4 16 6.8 16 0 16 C0 10.72 0 5.44 0 0 Z " fill="#FFFFFF" transform="translate(789,180)"/>
<path d="M0 0 C6.6 0 13.2 0 20 0 C20 5.28 20 10.56 20 16 C13.4 16 6.8 16 0 16 C0 10.72 0 5.44 0 0 Z " fill="#FFFFFF" transform="translate(476,142)"/>
<path d="M0 0 C6.6 0 13.2 0 20 0 C20 5.28 20 10.56 20 16 C13.4 16 6.8 16 0 16 C0 10.72 0 5.44 0 0 Z " fill="#FFFFFF" transform="translate(887,66)"/>
</svg>
